<svg width="243" height="117" viewBox="0 0 243 117" fill="none" xmlns="http://www.w3.org/2000/svg">
<path d="M121.158 117C120.317 117 119.521 116.839 118.771 116.518C118.021 116.197 117.373 115.761 116.804 115.187C116.236 114.625 115.804 113.959 115.475 113.224C115.145 112.49 114.997 111.687 114.997 110.838C114.997 109.988 115.156 109.185 115.475 108.451C115.793 107.716 116.236 107.051 116.804 106.488C117.373 105.926 118.021 105.478 118.771 105.157C119.521 104.836 120.317 104.675 121.158 104.675C121.999 104.675 122.806 104.836 123.556 105.157C124.295 105.478 124.954 105.914 125.511 106.488C126.079 107.062 126.511 107.716 126.841 108.451C127.171 109.185 127.318 109.988 127.318 110.838C127.318 111.687 127.159 112.49 126.841 113.224C126.523 113.959 126.079 114.625 125.511 115.187C124.943 115.761 124.295 116.197 123.556 116.518C122.817 116.839 122.01 117 121.158 117ZM121.158 115.703C121.828 115.703 122.453 115.577 123.045 115.325C123.624 115.072 124.136 114.728 124.579 114.28C125.022 113.833 125.363 113.316 125.613 112.72C125.863 112.134 125.988 111.503 125.988 110.826C125.988 110.149 125.863 109.518 125.613 108.933C125.363 108.347 125.022 107.831 124.579 107.383C124.136 106.936 123.624 106.591 123.045 106.339C122.465 106.087 121.84 105.96 121.158 105.96C120.476 105.96 119.862 106.087 119.282 106.339C118.703 106.591 118.18 106.936 117.736 107.383C117.293 107.831 116.952 108.347 116.702 108.933C116.452 109.518 116.327 110.149 116.327 110.826C116.327 111.503 116.452 112.134 116.702 112.72C116.952 113.305 117.293 113.833 117.736 114.28C118.18 114.728 118.691 115.072 119.282 115.325C119.873 115.577 120.487 115.703 121.158 115.703ZM118.646 107.739H121.703C122.328 107.739 122.829 107.9 123.226 108.221C123.624 108.542 123.817 108.99 123.817 109.575C123.817 109.931 123.738 110.229 123.59 110.482C123.442 110.734 123.215 110.906 122.919 111.01V111.067C123.204 111.067 123.42 111.147 123.579 111.319C123.738 111.492 123.817 111.733 123.817 112.065V113.947H122.408V111.962H120.055V113.947H118.646V107.739ZM120.055 110.734H121.521C121.783 110.734 121.987 110.654 122.158 110.505C122.328 110.356 122.419 110.137 122.419 109.874C122.419 109.61 122.328 109.392 122.158 109.242C121.987 109.093 121.771 109.013 121.521 109.013H120.055V110.746V110.734Z" fill="white"/>
<path d="M100.561 94.4042C103.908 94.4042 106.922 93.1763 109.222 91.1402C109.222 91.1402 111.268 89.042 113.997 88.0317C118.867 86.4463 124.133 86.4463 129.003 88.0317C131.716 89.042 133.762 91.1247 133.762 91.1247C136.633 93.6737 140.646 94.9637 144.993 94.14C150.069 93.1919 154.162 89.1974 155.145 84.2237C155.304 83.3999 155.367 82.5917 155.383 81.7835C155.383 81.7835 155.383 81.7524 155.383 81.7369C155.383 81.7213 155.383 81.6902 155.383 81.6747C155.32 74.7116 149.561 69.0695 142.439 69.0695C139.092 69.0695 136.078 70.2974 133.778 72.3335C133.778 72.3335 131.732 74.4318 129.003 75.4421C124.133 77.0274 118.867 77.0274 113.997 75.4421C111.284 74.4318 109.238 72.3491 109.238 72.3491C106.367 69.8 102.353 68.51 98.007 69.3338C92.9309 70.2819 88.8383 74.2764 87.8548 79.25C87.6962 80.0738 87.6327 80.882 87.6169 81.6902C87.6169 81.6902 87.6169 81.7213 87.6169 81.7369C87.6169 81.7524 87.6169 81.7835 87.6169 81.799C87.6803 88.7622 93.4385 94.4042 100.561 94.4042Z" fill="white"/>
<path d="M28.5215 16.0027C31.0765 16.217 33.0431 16.9885 34.3923 18.3173C35.7416 19.6461 36.4306 21.4035 36.4306 23.561C36.4306 29.262 32.4832 32.1053 24.5885 32.1053H0V0.614396H24.8182C28.3493 0.614396 30.9761 1.28594 32.7129 2.6433C34.4498 3.98638 35.311 5.82954 35.311 8.12993C35.311 10.0731 34.7225 11.6734 33.5454 12.9021C32.3684 14.1309 30.7033 14.8453 28.5215 15.0596V16.0027ZM9.40191 7.94418V12.945H22.3206C23.3684 12.945 24.1722 12.7164 24.7177 12.2735C25.2631 11.8305 25.5359 11.2019 25.5359 10.4303C25.5359 9.65875 25.2631 9.04436 24.7177 8.60143C24.1722 8.17279 23.3828 7.94418 22.3206 7.94418H9.40191ZM23.2249 24.7755C24.3732 24.7755 25.2344 24.5326 25.7943 24.0611C26.3684 23.5753 26.6555 22.9181 26.6555 22.0751C26.6555 21.2321 26.3684 20.532 25.7943 20.0462C25.2201 19.5604 24.3588 19.3318 23.2249 19.3318H9.40191V24.7755H23.2249Z" fill="white"/>
<path d="M72.8612 0.614396V8.08706H50.6268V12.8164H69.7033V19.4318H50.6268V24.6469H72.8612V32.1196H40.866V0.614396H72.8612Z" fill="white"/>
<path d="M91.2344 32.1053V22.4752L77.1675 0.614396H88.2919L93.8469 9.70161C95.0813 11.8591 95.6986 13.9166 95.6986 15.8598V16.6313H96.5167V15.8598C96.5167 13.9166 97.134 11.8591 98.3684 9.70161L103.923 0.614396H115.091L100.995 22.4752V32.1053H91.2344Z" fill="white"/>
<path d="M124.952 30.6051C121.751 29.1763 119.354 27.2331 117.746 24.7612C116.139 22.2894 115.335 19.4889 115.335 16.3741C115.335 13.2593 116.139 10.4589 117.746 7.98703C119.354 5.5152 121.766 3.55773 124.952 2.14321C128.139 0.714404 132.014 0 136.565 0C141.115 0 144.99 0.714404 148.177 2.14321C151.364 3.57202 153.775 5.5152 155.383 7.98703C156.99 10.4589 157.794 13.2593 157.794 16.3741C157.794 19.4889 156.99 22.2894 155.383 24.7612C153.775 27.2331 151.364 29.1905 148.177 30.6051C144.976 32.0339 141.115 32.7483 136.565 32.7483C132.014 32.7483 128.139 32.0339 124.952 30.6051ZM142.895 23.7611C144.617 23.0324 145.895 22.0179 146.756 20.7177C147.617 19.4318 148.048 17.9744 148.048 16.3598C148.048 14.7453 147.617 13.2879 146.756 12.002C145.895 10.7161 144.603 9.7016 142.895 8.95862C141.172 8.22993 139.062 7.85844 136.565 7.85844C134.067 7.85844 131.957 8.22993 130.234 8.95862C128.512 9.68732 127.234 10.7018 126.373 12.002C125.512 13.2879 125.081 14.7453 125.081 16.3598C125.081 17.9744 125.512 19.4318 126.373 20.7177C127.234 22.0036 128.526 23.0181 130.234 23.7611C131.957 24.4898 134.067 24.8613 136.565 24.8613C139.062 24.8613 141.172 24.4898 142.895 23.7611Z" fill="white"/>
<path d="M163.091 32.1053V0.614396H178.277L191.655 26.3044H192.517C192.057 24.9899 191.713 23.6325 191.483 22.2323C191.239 20.832 191.124 19.146 191.124 17.1743V0.614396H200.483V32.1053H185.34L171.919 6.41536H171.1C171.545 7.8013 171.904 9.17295 172.134 10.5589C172.364 11.9448 172.493 13.6023 172.493 15.5454V32.1053H163.091Z" fill="white"/>
<path d="M206.986 32.1053V0.614396H223.349C227.541 0.614396 231.1 1.30022 234.057 2.65759C237.014 4.02925 239.239 5.8867 240.746 8.25852C242.254 10.6303 243 13.3308 243 16.3599C243 19.3889 242.254 22.0894 240.746 24.4612C239.239 26.833 237.014 28.7048 234.057 30.0621C231.1 31.4338 227.541 32.1053 223.349 32.1053H206.986ZM223.335 24.2755C226.493 24.2755 228.933 23.5468 230.656 22.0894C232.378 20.632 233.225 18.7174 233.225 16.3599C233.225 14.0023 232.364 12.0734 230.656 10.6303C228.933 9.17295 226.493 8.44426 223.335 8.44426H216.732V24.2755H223.335Z" fill="white"/>
<path d="M107.681 59.452H103.653V49.7809H98.569V46.4737H112.765V49.7809H107.681V59.452Z" fill="white"/>
<path d="M125.4 51.0838V46.4737H129.428V59.452H125.4V54.3909H118.235V59.452H114.208V46.4737H118.235V51.0838H125.4Z" fill="white"/>
<path d="M145.302 46.4737V49.5471H136.14V51.5013H143.993V54.2239H136.14V56.3786H145.302V59.452H132.112V46.4737H145.302Z" fill="white"/>
<path d="M86.3162 96.2095H56.1296V64.7186H65.8903V88.2082H86.3162V96.2095Z" fill="white"/>
<path d="M181.26 64.7185C185.752 64.7185 189.14 65.7044 191.422 67.6905C193.719 69.6765 194.853 72.4198 194.853 75.9204C194.853 79.421 193.704 82.1786 191.422 84.1503C189.14 86.1364 185.738 87.1222 181.26 87.1222H170.408V96.2095H160.647V64.7185H181.26ZM180.8 79.4781C182.221 79.4781 183.283 79.1495 184.016 78.5065C184.733 77.8636 185.106 77.0063 185.106 75.9204C185.106 74.8345 184.748 73.9772 184.016 73.3343C183.298 72.6913 182.221 72.3627 180.8 72.3627H169.862V79.4638H180.8V79.4781Z" fill="white"/>
</svg>
