<svg width="963" height="957" viewBox="0 0 963 957" fill="none" xmlns="http://www.w3.org/2000/svg">
<path d="M38.722 36H29.152L23.752 22.32L18.022 36H8.27202L0.622019 15H8.87202L13.732 29.7H14.002L19.702 15H28.012L33.772 29.7H34.042L38.812 15H46.312L38.722 36ZM77.4199 36.3H74.2099C70.7699 36.3 67.9999 35.99 65.8999 35.37C63.7999 34.75 62.2799 33.7 61.3399 32.22C60.3999 30.74 59.9299 28.72 59.9299 26.16V24.84C59.9299 22.28 60.3999 20.26 61.3399 18.78C62.2799 17.3 63.7999 16.25 65.8999 15.63C67.9999 15.01 70.7699 14.7 74.2099 14.7H77.4199C80.8799 14.7 83.6499 15.01 85.7299 15.63C87.8299 16.25 89.3499 17.3 90.2899 18.78C91.2499 20.26 91.7299 22.28 91.7299 24.84V26.16C91.7299 28.72 91.2499 30.74 90.2899 32.22C89.3499 33.7 87.8299 34.75 85.7299 35.37C83.6499 35.99 80.8799 36.3 77.4199 36.3ZM76.3099 31.08C78.0099 31.08 79.3699 30.99 80.3899 30.81C81.4299 30.61 82.2199 30.31 82.7599 29.91C83.2999 29.51 83.6599 28.98 83.8399 28.32C84.0399 27.64 84.1399 26.82 84.1399 25.86V25.17C84.1399 24.19 84.0399 23.37 83.8399 22.71C83.6599 22.03 83.2999 21.49 82.7599 21.09C82.2199 20.69 81.4299 20.4 80.3899 20.22C79.3699 20.02 78.0099 19.92 76.3099 19.92H75.3199C73.6199 19.92 72.2499 20.02 71.2099 20.22C70.1899 20.4 69.4099 20.69 68.8699 21.09C68.3499 21.49 67.9899 22.03 67.7899 22.71C67.6099 23.37 67.5199 24.19 67.5199 25.17V25.86C67.5199 26.82 67.6099 27.64 67.7899 28.32C67.9899 28.98 68.3499 29.51 68.8699 29.91C69.4099 30.31 70.1899 30.61 71.2099 30.81C72.2499 30.99 73.6199 31.08 75.3199 31.08H76.3099ZM139.567 36H128.347L115.447 21.27H115.177V36H108.097V15H119.317L132.217 29.76H132.487V15H139.567V36ZM186.119 25.86C186.119 27.78 185.889 29.39 185.429 30.69C184.989 31.99 184.249 33.03 183.209 33.81C182.169 34.59 180.769 35.15 179.009 35.49C177.249 35.83 175.069 36 172.469 36H156.599V15H172.169C174.769 15 176.959 15.17 178.739 15.51C180.539 15.85 181.979 16.41 183.059 17.19C184.139 17.97 184.919 19.01 185.399 20.31C185.879 21.61 186.119 23.22 186.119 25.14V25.86ZM164.039 20.22V30.78H170.459C172.219 30.78 173.629 30.7 174.689 30.54C175.769 30.38 176.579 30.11 177.119 29.73C177.679 29.33 178.049 28.8 178.229 28.14C178.429 27.46 178.529 26.61 178.529 25.59V25.47C178.529 24.45 178.429 23.6 178.229 22.92C178.049 22.24 177.679 21.71 177.119 21.33C176.579 20.93 175.769 20.65 174.689 20.49C173.629 20.31 172.219 20.22 170.459 20.22H164.039ZM227.635 36H202.495V15H227.635V19.95H209.935V23.01H227.635V27.96H209.935V31.05H227.635V36ZM251.904 36H244.464V15H263.844C266.204 15 268.084 15.18 269.484 15.54C270.904 15.9 271.924 16.47 272.544 17.25C273.164 18.03 273.474 19.06 273.474 20.34V21.39C273.474 23.05 273.084 24.23 272.304 24.93C271.524 25.63 270.264 26.06 268.524 26.22V26.43C269.644 26.57 270.564 26.78 271.284 27.06C272.024 27.34 272.574 27.81 272.934 28.47C273.294 29.13 273.474 30.11 273.474 31.41V36H266.034V31.83C266.034 31.21 265.924 30.72 265.704 30.36C265.504 29.98 265.064 29.72 264.384 29.58C263.704 29.42 262.664 29.34 261.264 29.34H251.904V36ZM251.904 19.95V24.39H262.764C263.964 24.39 264.804 24.25 265.284 23.97C265.784 23.67 266.034 23.13 266.034 22.35V22.17C266.034 21.59 265.904 21.14 265.644 20.82C265.404 20.5 264.934 20.28 264.234 20.16C263.554 20.02 262.564 19.95 261.264 19.95H251.904ZM326.382 36.3H324.252C322.512 36.3 320.862 36.22 319.302 36.06C317.742 35.92 316.342 35.63 315.102 35.19C313.882 34.75 312.862 34.11 312.042 33.27C311.242 32.43 310.712 31.32 310.452 29.94H318.432C318.632 30.38 318.992 30.71 319.512 30.93C320.052 31.15 320.822 31.31 321.822 31.41C322.842 31.49 324.182 31.53 325.842 31.53C327.602 31.53 328.972 31.48 329.952 31.38C330.952 31.26 331.652 31.06 332.052 30.78C332.452 30.5 332.662 30.1 332.682 29.58V29.43C332.682 28.95 332.502 28.6 332.142 28.38C331.802 28.14 331.112 28 330.072 27.96L320.352 27.63C317.972 27.55 316.112 27.31 314.772 26.91C313.452 26.51 312.522 25.9 311.982 25.08C311.442 24.24 311.172 23.16 311.172 21.84V21.54C311.172 19.78 311.632 18.41 312.552 17.43C313.472 16.43 314.922 15.73 316.902 15.33C318.882 14.91 321.452 14.7 324.612 14.7H326.112C327.832 14.7 329.462 14.78 331.002 14.94C332.542 15.1 333.922 15.41 335.142 15.87C336.362 16.33 337.372 17 338.172 17.88C338.992 18.74 339.542 19.89 339.822 21.33H331.812C331.532 20.61 330.882 20.12 329.862 19.86C328.842 19.6 327.222 19.47 325.002 19.47C323.302 19.47 322.002 19.54 321.102 19.68C320.202 19.8 319.582 20 319.242 20.28C318.922 20.54 318.762 20.89 318.762 21.33V21.39C318.762 21.87 318.932 22.23 319.272 22.47C319.612 22.71 320.312 22.85 321.372 22.89L331.002 23.19C333.382 23.29 335.242 23.54 336.582 23.94C337.922 24.32 338.852 24.91 339.372 25.71C339.912 26.49 340.182 27.52 340.182 28.8V29.04C340.182 30.96 339.702 32.45 338.742 33.51C337.782 34.55 336.282 35.28 334.242 35.7C332.222 36.1 329.602 36.3 326.382 36.3ZM371.414 36H363.974V20.61H354.314V15H381.074V20.61H371.414V36ZM411.998 36.3H408.368C405.868 36.3 403.808 36.13 402.188 35.79C400.588 35.45 399.338 34.9 398.438 34.14C397.558 33.38 396.938 32.37 396.578 31.11C396.238 29.83 396.068 28.26 396.068 26.4V15H403.628V26.16C403.628 27.5 403.788 28.53 404.108 29.25C404.448 29.95 405.058 30.43 405.938 30.69C406.818 30.95 408.088 31.08 409.748 31.08H410.618C412.278 31.08 413.548 30.95 414.428 30.69C415.308 30.43 415.908 29.95 416.228 29.25C416.548 28.53 416.708 27.5 416.708 26.16V15H424.298V26.4C424.298 28.26 424.118 29.83 423.758 31.11C423.418 32.37 422.798 33.38 421.898 34.14C421.018 34.9 419.768 35.45 418.148 35.79C416.548 36.13 414.498 36.3 411.998 36.3ZM470.267 25.86C470.267 27.78 470.037 29.39 469.577 30.69C469.137 31.99 468.397 33.03 467.357 33.81C466.317 34.59 464.917 35.15 463.157 35.49C461.397 35.83 459.217 36 456.617 36H440.747V15H456.317C458.917 15 461.107 15.17 462.887 15.51C464.687 15.85 466.127 16.41 467.207 17.19C468.287 17.97 469.067 19.01 469.547 20.31C470.027 21.61 470.267 23.22 470.267 25.14V25.86ZM448.187 20.22V30.78H454.607C456.367 30.78 457.777 30.7 458.837 30.54C459.917 30.38 460.727 30.11 461.267 29.73C461.827 29.33 462.197 28.8 462.377 28.14C462.577 27.46 462.677 26.61 462.677 25.59V25.47C462.677 24.45 462.577 23.6 462.377 22.92C462.197 22.24 461.827 21.71 461.267 21.33C460.727 20.93 459.917 20.65 458.837 20.49C457.777 20.31 456.367 20.22 454.607 20.22H448.187ZM494.083 36H486.643V15H494.083V36ZM527.981 36.3H524.771C521.331 36.3 518.561 35.99 516.461 35.37C514.361 34.75 512.841 33.7 511.901 32.22C510.961 30.74 510.491 28.72 510.491 26.16V24.84C510.491 22.28 510.961 20.26 511.901 18.78C512.841 17.3 514.361 16.25 516.461 15.63C518.561 15.01 521.331 14.7 524.771 14.7H527.981C531.441 14.7 534.211 15.01 536.291 15.63C538.391 16.25 539.911 17.3 540.851 18.78C541.811 20.26 542.291 22.28 542.291 24.84V26.16C542.291 28.72 541.811 30.74 540.851 32.22C539.911 33.7 538.391 34.75 536.291 35.37C534.211 35.99 531.441 36.3 527.981 36.3ZM526.871 31.08C528.571 31.08 529.931 30.99 530.951 30.81C531.991 30.61 532.781 30.31 533.321 29.91C533.861 29.51 534.221 28.98 534.401 28.32C534.601 27.64 534.701 26.82 534.701 25.86V25.17C534.701 24.19 534.601 23.37 534.401 22.71C534.221 22.03 533.861 21.49 533.321 21.09C532.781 20.69 531.991 20.4 530.951 20.22C529.931 20.02 528.571 19.92 526.871 19.92H525.881C524.181 19.92 522.811 20.02 521.771 20.22C520.751 20.4 519.971 20.69 519.431 21.09C518.911 21.49 518.551 22.03 518.351 22.71C518.171 23.37 518.081 24.19 518.081 25.17V25.86C518.081 26.82 518.171 27.64 518.351 28.32C518.551 28.98 518.911 29.51 519.431 29.91C519.971 30.31 520.751 30.61 521.771 30.81C522.811 30.99 524.181 31.08 525.881 31.08H526.871ZM573.688 36.3H571.558C569.818 36.3 568.168 36.22 566.608 36.06C565.048 35.92 563.648 35.63 562.408 35.19C561.188 34.75 560.168 34.11 559.348 33.27C558.548 32.43 558.018 31.32 557.758 29.94H565.738C565.938 30.38 566.298 30.71 566.818 30.93C567.358 31.15 568.128 31.31 569.128 31.41C570.148 31.49 571.488 31.53 573.148 31.53C574.908 31.53 576.278 31.48 577.258 31.38C578.258 31.26 578.958 31.06 579.358 30.78C579.758 30.5 579.968 30.1 579.988 29.58V29.43C579.988 28.95 579.808 28.6 579.448 28.38C579.108 28.14 578.418 28 577.378 27.96L567.658 27.63C565.278 27.55 563.418 27.31 562.078 26.91C560.758 26.51 559.828 25.9 559.288 25.08C558.748 24.24 558.478 23.16 558.478 21.84V21.54C558.478 19.78 558.938 18.41 559.858 17.43C560.778 16.43 562.228 15.73 564.208 15.33C566.188 14.91 568.758 14.7 571.918 14.7H573.418C575.138 14.7 576.768 14.78 578.308 14.94C579.848 15.1 581.228 15.41 582.448 15.87C583.668 16.33 584.678 17 585.478 17.88C586.298 18.74 586.848 19.89 587.128 21.33H579.118C578.838 20.61 578.188 20.12 577.168 19.86C576.148 19.6 574.528 19.47 572.308 19.47C570.608 19.47 569.308 19.54 568.408 19.68C567.508 19.8 566.888 20 566.548 20.28C566.228 20.54 566.068 20.89 566.068 21.33V21.39C566.068 21.87 566.238 22.23 566.578 22.47C566.918 22.71 567.618 22.85 568.678 22.89L578.308 23.19C580.688 23.29 582.548 23.54 583.888 23.94C585.228 24.32 586.158 24.91 586.678 25.71C587.218 26.49 587.488 27.52 587.488 28.8V29.04C587.488 30.96 587.008 32.45 586.048 33.51C585.088 34.55 583.588 35.28 581.548 35.7C579.528 36.1 576.908 36.3 573.688 36.3ZM632.195 36H624.755V15H643.415C645.895 15 647.885 15.23 649.385 15.69C650.905 16.13 652.015 16.89 652.715 17.97C653.415 19.03 653.765 20.5 653.765 22.38V22.8C653.765 24.48 653.425 25.85 652.745 26.91C652.065 27.97 650.965 28.76 649.445 29.28C647.945 29.78 645.935 30.03 643.415 30.03H632.195V36ZM632.195 19.95V25.05H642.305C643.425 25.05 644.275 24.98 644.855 24.84C645.435 24.68 645.825 24.43 646.025 24.09C646.225 23.73 646.325 23.25 646.325 22.65V22.38C646.325 21.78 646.215 21.3 645.995 20.94C645.795 20.58 645.405 20.33 644.825 20.19C644.245 20.03 643.395 19.95 642.275 19.95H632.195ZM676.889 36H669.449V15H688.829C691.189 15 693.069 15.18 694.469 15.54C695.889 15.9 696.909 16.47 697.529 17.25C698.149 18.03 698.459 19.06 698.459 20.34V21.39C698.459 23.05 698.069 24.23 697.289 24.93C696.509 25.63 695.249 26.06 693.509 26.22V26.43C694.629 26.57 695.549 26.78 696.269 27.06C697.009 27.34 697.559 27.81 697.919 28.47C698.279 29.13 698.459 30.11 698.459 31.41V36H691.019V31.83C691.019 31.21 690.909 30.72 690.689 30.36C690.489 29.98 690.049 29.72 689.369 29.58C688.689 29.42 687.649 29.34 686.249 29.34H676.889V36ZM676.889 19.95V24.39H687.749C688.949 24.39 689.789 24.25 690.269 23.97C690.769 23.67 691.019 23.13 691.019 22.35V22.17C691.019 21.59 690.889 21.14 690.629 20.82C690.389 20.5 689.919 20.28 689.219 20.16C688.539 20.02 687.549 19.95 686.249 19.95H676.889ZM740.25 36H715.11V15H740.25V19.95H722.55V23.01H740.25V27.96H722.55V31.05H740.25V36ZM772.11 36.3H769.98C768.24 36.3 766.59 36.22 765.03 36.06C763.47 35.92 762.07 35.63 760.83 35.19C759.61 34.75 758.59 34.11 757.77 33.27C756.97 32.43 756.44 31.32 756.18 29.94H764.16C764.36 30.38 764.72 30.71 765.24 30.93C765.78 31.15 766.55 31.31 767.55 31.41C768.57 31.49 769.91 31.53 771.57 31.53C773.33 31.53 774.7 31.48 775.68 31.38C776.68 31.26 777.38 31.06 777.78 30.78C778.18 30.5 778.39 30.1 778.41 29.58V29.43C778.41 28.95 778.23 28.6 777.87 28.38C777.53 28.14 776.84 28 775.8 27.96L766.08 27.63C763.7 27.55 761.84 27.31 760.5 26.91C759.18 26.51 758.25 25.9 757.71 25.08C757.17 24.24 756.9 23.16 756.9 21.84V21.54C756.9 19.78 757.36 18.41 758.28 17.43C759.2 16.43 760.65 15.73 762.63 15.33C764.61 14.91 767.18 14.7 770.34 14.7H771.84C773.56 14.7 775.19 14.78 776.73 14.94C778.27 15.1 779.65 15.41 780.87 15.87C782.09 16.33 783.1 17 783.9 17.88C784.72 18.74 785.27 19.89 785.55 21.33H777.54C777.26 20.61 776.61 20.12 775.59 19.86C774.57 19.6 772.95 19.47 770.73 19.47C769.03 19.47 767.73 19.54 766.83 19.68C765.93 19.8 765.31 20 764.97 20.28C764.65 20.54 764.49 20.89 764.49 21.33V21.39C764.49 21.87 764.66 22.23 765 22.47C765.34 22.71 766.04 22.85 767.1 22.89L776.73 23.19C779.11 23.29 780.97 23.54 782.31 23.94C783.65 24.32 784.58 24.91 785.1 25.71C785.64 26.49 785.91 27.52 785.91 28.8V29.04C785.91 30.96 785.43 32.45 784.47 33.51C783.51 34.55 782.01 35.28 779.97 35.7C777.95 36.1 775.33 36.3 772.11 36.3ZM827.09 36H801.95V15H827.09V19.95H809.39V23.01H827.09V27.96H809.39V31.05H827.09V36ZM875.389 36H864.169L851.269 21.27H850.999V36H843.919V15H855.139L868.039 29.76H868.309V15H875.389V36ZM908.082 36H900.642V20.61H890.982V15H917.742V20.61H908.082V36ZM947.898 36.3H945.768C944.028 36.3 942.378 36.22 940.818 36.06C939.258 35.92 937.858 35.63 936.618 35.19C935.398 34.75 934.378 34.11 933.558 33.27C932.758 32.43 932.228 31.32 931.968 29.94H939.948C940.148 30.38 940.508 30.71 941.028 30.93C941.568 31.15 942.338 31.31 943.338 31.41C944.358 31.49 945.698 31.53 947.358 31.53C949.118 31.53 950.488 31.48 951.468 31.38C952.468 31.26 953.168 31.06 953.568 30.78C953.968 30.5 954.178 30.1 954.198 29.58V29.43C954.198 28.95 954.018 28.6 953.658 28.38C953.318 28.14 952.628 28 951.588 27.96L941.868 27.63C939.488 27.55 937.628 27.31 936.288 26.91C934.968 26.51 934.038 25.9 933.498 25.08C932.958 24.24 932.688 23.16 932.688 21.84V21.54C932.688 19.78 933.148 18.41 934.068 17.43C934.988 16.43 936.438 15.73 938.418 15.33C940.398 14.91 942.968 14.7 946.128 14.7H947.628C949.348 14.7 950.978 14.78 952.518 14.94C954.058 15.1 955.438 15.41 956.658 15.87C957.878 16.33 958.888 17 959.688 17.88C960.508 18.74 961.058 19.89 961.338 21.33H953.328C953.048 20.61 952.398 20.12 951.378 19.86C950.358 19.6 948.738 19.47 946.518 19.47C944.818 19.47 943.518 19.54 942.618 19.68C941.718 19.8 941.098 20 940.758 20.28C940.438 20.54 940.278 20.89 940.278 21.33V21.39C940.278 21.87 940.448 22.23 940.788 22.47C941.128 22.71 941.828 22.85 942.888 22.89L952.518 23.19C954.898 23.29 956.758 23.54 958.098 23.94C959.438 24.32 960.368 24.91 960.888 25.71C961.428 26.49 961.698 27.52 961.698 28.8V29.04C961.698 30.96 961.218 32.45 960.258 33.51C959.298 34.55 957.798 35.28 955.758 35.7C953.738 36.1 951.118 36.3 947.898 36.3Z" fill="white"/>
<path d="M367.174 925.3H365.044C363.304 925.3 361.654 925.22 360.094 925.06C358.534 924.92 357.134 924.63 355.894 924.19C354.674 923.75 353.654 923.11 352.834 922.27C352.034 921.43 351.504 920.32 351.244 918.94H359.224C359.424 919.38 359.784 919.71 360.304 919.93C360.844 920.15 361.614 920.31 362.614 920.41C363.634 920.49 364.974 920.53 366.634 920.53C368.394 920.53 369.764 920.48 370.744 920.38C371.744 920.26 372.444 920.06 372.844 919.78C373.244 919.5 373.454 919.1 373.474 918.58V918.43C373.474 917.95 373.294 917.6 372.934 917.38C372.594 917.14 371.904 917 370.864 916.96L361.144 916.63C358.764 916.55 356.904 916.31 355.564 915.91C354.244 915.51 353.314 914.9 352.774 914.08C352.234 913.24 351.964 912.16 351.964 910.84V910.54C351.964 908.78 352.424 907.41 353.344 906.43C354.264 905.43 355.714 904.73 357.694 904.33C359.674 903.91 362.244 903.7 365.404 903.7H366.904C368.624 903.7 370.254 903.78 371.794 903.94C373.334 904.1 374.714 904.41 375.934 904.87C377.154 905.33 378.164 906 378.964 906.88C379.784 907.74 380.334 908.89 380.614 910.33H372.604C372.324 909.61 371.674 909.12 370.654 908.86C369.634 908.6 368.014 908.47 365.794 908.47C364.094 908.47 362.794 908.54 361.894 908.68C360.994 908.8 360.374 909 360.034 909.28C359.714 909.54 359.554 909.89 359.554 910.33V910.39C359.554 910.87 359.724 911.23 360.064 911.47C360.404 911.71 361.104 911.85 362.164 911.89L371.794 912.19C374.174 912.29 376.034 912.54 377.374 912.94C378.714 913.32 379.644 913.91 380.164 914.71C380.704 915.49 380.974 916.52 380.974 917.8V918.04C380.974 919.96 380.494 921.45 379.534 922.51C378.574 923.55 377.074 924.28 375.034 924.7C373.014 925.1 370.394 925.3 367.174 925.3ZM422.154 925H397.014V904H422.154V908.95H404.454V912.01H422.154V916.96H404.454V920.05H422.154V925ZM473.183 925H464.693L462.293 920.83H447.833L445.463 925H437.243L449.513 904H460.913L473.183 925ZM454.943 908.44L450.653 915.88H459.473L455.213 908.44H454.943ZM502.047 925.3H499.917C498.177 925.3 496.527 925.22 494.967 925.06C493.407 924.92 492.007 924.63 490.767 924.19C489.547 923.75 488.527 923.11 487.707 922.27C486.907 921.43 486.377 920.32 486.117 918.94H494.097C494.297 919.38 494.657 919.71 495.177 919.93C495.717 920.15 496.487 920.31 497.487 920.41C498.507 920.49 499.847 920.53 501.507 920.53C503.267 920.53 504.637 920.48 505.617 920.38C506.617 920.26 507.317 920.06 507.717 919.78C508.117 919.5 508.327 919.1 508.347 918.58V918.43C508.347 917.95 508.167 917.6 507.807 917.38C507.467 917.14 506.777 917 505.737 916.96L496.017 916.63C493.637 916.55 491.777 916.31 490.437 915.91C489.117 915.51 488.187 914.9 487.647 914.08C487.107 913.24 486.837 912.16 486.837 910.84V910.54C486.837 908.78 487.297 907.41 488.217 906.43C489.137 905.43 490.587 904.73 492.567 904.33C494.547 903.91 497.117 903.7 500.277 903.7H501.777C503.497 903.7 505.127 903.78 506.667 903.94C508.207 904.1 509.587 904.41 510.807 904.87C512.027 905.33 513.037 906 513.837 906.88C514.657 907.74 515.207 908.89 515.487 910.33H507.477C507.197 909.61 506.547 909.12 505.527 908.86C504.507 908.6 502.887 908.47 500.667 908.47C498.967 908.47 497.667 908.54 496.767 908.68C495.867 908.8 495.247 909 494.907 909.28C494.587 909.54 494.427 909.89 494.427 910.33V910.39C494.427 910.87 494.597 911.23 494.937 911.47C495.277 911.71 495.977 911.85 497.037 911.89L506.667 912.19C509.047 912.29 510.907 912.54 512.247 912.94C513.587 913.32 514.517 913.91 515.037 914.71C515.577 915.49 515.847 916.52 515.847 917.8V918.04C515.847 919.96 515.367 921.45 514.407 922.51C513.447 923.55 511.947 924.28 509.907 924.7C507.887 925.1 505.267 925.3 502.047 925.3ZM548.717 925.3H545.507C542.067 925.3 539.297 924.99 537.197 924.37C535.097 923.75 533.577 922.7 532.637 921.22C531.697 919.74 531.227 917.72 531.227 915.16V913.84C531.227 911.28 531.697 909.26 532.637 907.78C533.577 906.3 535.097 905.25 537.197 904.63C539.297 904.01 542.067 903.7 545.507 903.7H548.717C552.177 903.7 554.947 904.01 557.027 904.63C559.127 905.25 560.647 906.3 561.587 907.78C562.547 909.26 563.027 911.28 563.027 913.84V915.16C563.027 917.72 562.547 919.74 561.587 921.22C560.647 922.7 559.127 923.75 557.027 924.37C554.947 924.99 552.177 925.3 548.717 925.3ZM547.607 920.08C549.307 920.08 550.667 919.99 551.687 919.81C552.727 919.61 553.517 919.31 554.057 918.91C554.597 918.51 554.957 917.98 555.137 917.32C555.337 916.64 555.437 915.82 555.437 914.86V914.17C555.437 913.19 555.337 912.37 555.137 911.71C554.957 911.03 554.597 910.49 554.057 910.09C553.517 909.69 552.727 909.4 551.687 909.22C550.667 909.02 549.307 908.92 547.607 908.92H546.617C544.917 908.92 543.547 909.02 542.507 909.22C541.487 909.4 540.707 909.69 540.167 910.09C539.647 910.49 539.287 911.03 539.087 911.71C538.907 912.37 538.817 913.19 538.817 914.17V914.86C538.817 915.82 538.907 916.64 539.087 917.32C539.287 917.98 539.647 918.51 540.167 918.91C540.707 919.31 541.487 919.61 542.507 919.81C543.547 919.99 544.917 920.08 546.617 920.08H547.607ZM610.864 925H599.644L586.744 910.27H586.474V925H579.394V904H590.614L603.514 918.76H603.784V904H610.864V925ZM472.951 957H465.511V936H472.951V957ZM497.46 957H490.02V936H497.46V957Z" fill="white"/>
<path d="M480 550C478.771 550 477.609 549.765 476.513 549.296C475.417 548.827 474.47 548.19 473.64 547.352C472.81 546.531 472.179 545.559 471.697 544.486C471.216 543.413 471 542.24 471 541C471 539.76 471.232 538.587 471.697 537.514C472.162 536.441 472.81 535.469 473.64 534.648C474.47 533.827 475.417 533.173 476.513 532.704C477.609 532.235 478.771 532 480 532C481.229 532 482.408 532.235 483.504 532.704C484.583 533.173 485.546 533.81 486.36 534.648C487.19 535.486 487.821 536.441 488.303 537.514C488.784 538.587 489 539.76 489 541C489 542.24 488.768 543.413 488.303 544.486C487.838 545.559 487.19 546.531 486.36 547.352C485.53 548.19 484.583 548.827 483.504 549.296C482.424 549.765 481.245 550 480 550ZM480 548.106C480.98 548.106 481.893 547.922 482.756 547.553C483.603 547.184 484.351 546.682 484.998 546.028C485.646 545.374 486.144 544.62 486.509 543.749C486.875 542.894 487.057 541.972 487.057 540.983C487.057 539.994 486.875 539.073 486.509 538.218C486.144 537.363 485.646 536.609 484.998 535.955C484.351 535.302 483.603 534.799 482.756 534.43C481.91 534.061 480.996 533.877 480 533.877C479.004 533.877 478.107 534.061 477.26 534.43C476.413 534.799 475.649 535.302 475.002 535.955C474.354 536.609 473.856 537.363 473.491 538.218C473.125 539.073 472.943 539.994 472.943 540.983C472.943 541.972 473.125 542.894 473.491 543.749C473.856 544.603 474.354 545.374 475.002 546.028C475.649 546.682 476.397 547.184 477.26 547.553C478.124 547.922 479.02 548.106 480 548.106ZM476.33 536.475H480.797C481.71 536.475 482.441 536.709 483.022 537.179C483.603 537.648 483.886 538.302 483.886 539.156C483.886 539.676 483.769 540.112 483.554 540.48C483.338 540.849 483.006 541.101 482.574 541.251V541.335C482.989 541.335 483.304 541.452 483.537 541.704C483.769 541.955 483.886 542.307 483.886 542.793V545.542H481.827V542.642H478.389V545.542H476.33V536.475ZM478.389 540.849H480.531C480.913 540.849 481.212 540.732 481.461 540.514C481.71 540.296 481.843 539.978 481.843 539.592C481.843 539.207 481.71 538.888 481.461 538.67C481.212 538.452 480.897 538.335 480.531 538.335H478.389V540.866V540.849Z" fill="white"/>
<path d="M449.91 517C454.8 517 459.203 515.207 462.563 512.233C462.563 512.233 465.553 509.169 469.539 507.693C476.653 505.378 484.347 505.378 491.461 507.693C495.424 509.169 498.414 512.21 498.414 512.21C502.608 515.933 508.471 517.817 514.821 516.614C522.237 515.229 528.216 509.396 529.652 502.132C529.884 500.929 529.977 499.748 530 498.568C530 498.568 530 498.523 530 498.5C530 498.477 530 498.432 530 498.409C529.907 488.24 521.495 480 511.09 480C506.2 480 501.797 481.793 498.437 484.767C498.437 484.767 495.447 487.831 491.461 489.307C484.347 491.622 476.653 491.622 469.539 489.307C465.576 487.831 462.586 484.79 462.586 484.79C458.392 481.067 452.529 479.183 446.179 480.386C438.763 481.771 432.784 487.604 431.348 494.868C431.116 496.071 431.023 497.252 431 498.432C431 498.432 431 498.477 431 498.5C431 498.523 431 498.568 431 498.591C431.093 508.76 439.505 517 449.91 517Z" fill="white"/>
<path d="M344.667 402.499C348.4 402.812 351.273 403.938 353.244 405.879C355.215 407.82 356.222 410.386 356.222 413.537C356.222 421.863 350.455 426.016 338.921 426.016H303V380.025H339.257C344.416 380.025 348.253 381.005 350.79 382.988C353.328 384.949 354.586 387.641 354.586 391.001C354.586 393.839 353.726 396.176 352.007 397.97C350.287 399.765 347.855 400.808 344.667 401.121V402.499ZM316.735 390.73V398.033H335.608C337.139 398.033 338.313 397.699 339.11 397.052C339.907 396.405 340.306 395.487 340.306 394.36C340.306 393.234 339.907 392.336 339.11 391.689C338.313 391.063 337.16 390.73 335.608 390.73H316.735ZM336.929 415.311C338.607 415.311 339.865 414.956 340.683 414.267C341.522 413.558 341.941 412.598 341.941 411.367C341.941 410.136 341.522 409.113 340.683 408.404C339.844 407.694 338.586 407.361 336.929 407.361H316.735V415.311H336.929Z" fill="white"/>
<path d="M409.443 380.025V390.938H376.961V397.845H404.83V407.507H376.961V415.123H409.443V426.036H362.701V380.025H409.443Z" fill="white"/>
<path d="M436.285 426.016V411.951L415.734 380.025H431.986L440.101 393.296C441.905 396.447 442.807 399.452 442.807 402.29V403.417H444.002V402.29C444.002 399.452 444.904 396.447 446.707 393.296L454.822 380.025H471.137L450.544 411.951V426.016H436.285Z" fill="white"/>
<path d="M485.543 423.825C480.867 421.738 477.365 418.9 475.016 415.29C472.668 411.68 471.493 407.59 471.493 403.041C471.493 398.492 472.668 394.402 475.016 390.792C477.365 387.182 480.888 384.323 485.543 382.257C490.199 380.171 495.86 379.127 502.508 379.127C509.155 379.127 514.817 380.171 519.473 382.257C524.128 384.344 527.651 387.182 530 390.792C532.348 394.402 533.522 398.492 533.522 403.041C533.522 407.59 532.348 411.68 530 415.29C527.651 418.9 524.128 421.759 519.473 423.825C514.796 425.911 509.155 426.955 502.508 426.955C495.86 426.955 490.199 425.911 485.543 423.825ZM511.756 413.829C514.272 412.765 516.138 411.284 517.397 409.385C518.655 407.507 519.284 405.378 519.284 403.02C519.284 400.662 518.655 398.534 517.397 396.656C516.138 394.778 514.251 393.296 511.756 392.211C509.239 391.147 506.157 390.604 502.508 390.604C498.859 390.604 495.777 391.147 493.26 392.211C490.744 393.275 488.878 394.757 487.619 396.656C486.361 398.534 485.732 400.662 485.732 403.02C485.732 405.378 486.361 407.507 487.619 409.385C488.878 411.263 490.765 412.744 493.26 413.829C495.777 414.893 498.859 415.436 502.508 415.436C506.157 415.436 509.239 414.893 511.756 413.829Z" fill="white"/>
<path d="M541.26 426.016V380.025H563.447L582.991 417.544H584.249C583.578 415.624 583.074 413.641 582.739 411.597C582.382 409.552 582.215 407.089 582.215 404.21V380.025H595.887V426.016H573.764L554.157 388.497H552.962C553.612 390.521 554.136 392.524 554.471 394.548C554.807 396.572 554.996 398.993 554.996 401.831V426.016H541.26Z" fill="white"/>
<path d="M605.387 426.016V380.025H629.292C635.416 380.025 640.616 381.026 644.936 383.009C649.256 385.012 652.506 387.725 654.708 391.189C656.91 394.653 658 398.596 658 403.02C658 407.444 656.91 411.388 654.708 414.852C652.506 418.316 649.256 421.049 644.936 423.032C640.616 425.035 635.416 426.016 629.292 426.016H605.387ZM629.271 414.581C633.885 414.581 637.45 413.516 639.966 411.388C642.482 409.259 643.72 406.463 643.72 403.02C643.72 399.577 642.461 396.76 639.966 394.653C637.45 392.524 633.885 391.46 629.271 391.46H619.625V414.581H629.271Z" fill="white"/>
<path d="M460.311 465.954H454.428V451.83H447V447H467.739V451.83H460.311V465.954Z" fill="white"/>
<path d="M486.198 453.733V447H492.082V465.954H486.198V458.563H475.731V465.954H469.847V447H475.731V453.733H486.198Z" fill="white"/>
<path d="M515.272 447V451.488H501.887V454.343H513.36V458.319H501.887V461.466H515.272V465.954H496.004V447H515.272Z" fill="white"/>
<path d="M429.1 519.637H385V473.646H399.26V507.951H429.1V519.637Z" fill="white"/>
<path d="M567.803 473.646C574.367 473.646 579.316 475.085 582.65 477.986C586.005 480.886 587.662 484.893 587.662 490.005C587.662 495.118 585.984 499.145 582.65 502.025C579.316 504.925 574.346 506.365 567.803 506.365H551.95V519.636H537.69V473.646H567.803ZM567.132 495.201C569.208 495.201 570.76 494.721 571.829 493.782C572.878 492.843 573.423 491.591 573.423 490.005C573.423 488.419 572.899 487.167 571.829 486.228C570.781 485.289 569.208 484.809 567.132 484.809H551.153V495.18H567.132V495.201Z" fill="white"/>
</svg>
