<svg width="294" height="297" viewBox="0 0 294 297" fill="none" xmlns="http://www.w3.org/2000/svg">
<g clip-path="url(#clip0_1_1410)">
<path d="M172.977 123.117V13.3859C172.977 5.9902 166.992 0 159.604 0H131.688C124.3 0 118.315 5.9902 118.315 13.3859V129.877C118.315 137.273 124.3 143.263 131.688 143.263H152.884C163.983 143.263 173.01 152.265 173.01 163.409V283.614C173.01 291.01 178.994 297 186.383 297H214.332C221.72 297 227.705 291.01 227.705 283.614V156.649C227.705 149.253 221.72 143.263 214.332 143.263H193.136C182.037 143.263 173.01 134.261 173.01 123.117H172.977Z" fill="white"/>
<path d="M54.6611 0.234375H0V143.263H54.6611V0.234375Z" fill="white"/>
<path d="M109.322 143.263H54.6611V297H109.322V143.263Z" fill="white"/>
<path d="M294 115.889C294 108.828 291.359 102.469 286.979 97.6169C286.979 97.6169 282.466 93.2999 280.293 87.544C276.883 77.2703 276.883 66.16 280.293 55.8863C282.466 50.1638 286.946 45.8469 286.946 45.8469C292.429 39.7898 295.203 31.3232 293.432 22.1538C291.392 11.4451 282.8 2.81116 272.102 0.736347C270.33 0.401699 268.592 0.26784 266.853 0.234375C266.853 0.234375 266.786 0.234375 266.753 0.234375C266.72 0.234375 266.653 0.234375 266.619 0.234375C251.642 0.368234 239.506 12.516 239.506 27.5416C239.506 34.6027 242.147 40.961 246.527 45.8134C246.527 45.8134 251.04 50.1304 253.213 55.8863C256.623 66.16 256.623 77.2703 253.213 87.544C251.04 93.2665 246.56 97.5834 246.56 97.5834C241.077 103.641 238.302 112.107 240.074 121.277C242.114 131.985 250.706 140.619 261.404 142.694C263.176 143.029 264.914 143.162 266.653 143.196C266.653 143.196 266.72 143.196 266.753 143.196C266.786 143.196 266.853 143.196 266.887 143.196C281.864 143.062 294 130.914 294 115.889Z" fill="white"/>
</g>
<defs>
<clipPath id="clip0_1_1410">
<rect width="294" height="297" fill="white"/>
</clipPath>
</defs>
</svg>
